<svg width="143" height="143" viewBox="0 0 143 143" fill="none" xmlns="http://www.w3.org/2000/svg">
<path d="M62.5627 89.375H80.4377L77.0116 70.1593C78.9977 69.1663 80.5618 67.7264 81.7038 65.8395C82.8458 63.9527 83.4168 61.8673 83.4168 59.5833C83.4168 56.3062 82.25 53.5008 79.9163 51.1671C77.5826 48.8335 74.7772 47.6666 71.5002 47.6666C68.2231 47.6666 65.4177 48.8335 63.084 51.1671C60.7503 53.5008 59.5835 56.3062 59.5835 59.5833C59.5835 61.8673 60.1545 63.9527 61.2965 65.8395C62.4385 67.7264 64.0026 69.1663 65.9887 70.1593L62.5627 89.375ZM71.5002 131.083C57.6967 127.608 46.3014 119.688 37.3142 107.324C28.3271 94.9609 23.8335 81.2319 23.8335 66.1375V29.7916L71.5002 11.9166L119.167 29.7916V66.1375C119.167 81.2319 114.673 94.9609 105.686 107.324C96.699 119.688 85.3036 127.608 71.5002 131.083ZM71.5002 118.571C81.8279 115.294 90.3682 108.74 97.121 98.9083C103.874 89.077 107.25 78.1534 107.25 66.1375V37.9843L71.5002 24.5781L35.7502 37.9843V66.1375C35.7502 78.1534 39.1266 89.077 45.8793 98.9083C52.6321 108.74 61.1724 115.294 71.5002 118.571Z" fill="url(#paint0_linear_2_314)"/>
<defs>
<linearGradient id="paint0_linear_2_314" x1="71.0002" y1="-7" x2="71.5001" y2="144.247" gradientUnits="userSpaceOnUse">
<stop stop-color="#FAFAFA" stop-opacity="0.7"/>
<stop offset="1" stop-color="#4674A5"/>
</linearGradient>
</defs>
</svg>
